HIERARCHY
ROOT Hip
{
  OFFSET 0.0 0.0 0.0
  CHANNELS 6 Xposition Yposition Zposition Xrotation Yrotation Zrotation
  JOINT LowerSpine
  {
    OFFSET 0.0 0.061367 -0.03653
    CHANNELS 3 Xrotation Yrotation Zrotation
    JOINT MiddleSpine
    {
      OFFSET 0.0 0.056002 0.002633
      CHANNELS 3 Xrotation Yrotation Zrotation
      JOINT Chest
      {
        OFFSET 0.0 0.069296 -0.013882
        CHANNELS 3 Xrotation Yrotation Zrotation
        JOINT Neck
        {
          OFFSET 0.0 0.156156 -0.002923
          CHANNELS 3 Xrotation Yrotation Zrotation
          JOINT Head
          {
            OFFSET 0.0 0.088183 0.023986
            CHANNELS 3 Xrotation Yrotation Zrotation
            End Site
            {
              OFFSET 1e-06 0.123215 0.003678
            }
          }
        }
        JOINT LClavicle
        {
          OFFSET 0.014189 0.150698 0.046467
          CHANNELS 3 Xrotation Yrotation Zrotation
          JOINT LShoulder
          {
            OFFSET 0.082893 0.021616 -0.034976
            CHANNELS 3 Xrotation Yrotation Zrotation
            JOINT LForearm
            {
              OFFSET 0.195645 -0.000695 -0.001695
              CHANNELS 3 Xrotation Yrotation Zrotation
              JOINT LHand
              {
                OFFSET 0.163209 0.000474 -0.000977
                CHANNELS 3 Xrotation Yrotation Zrotation
                End Site
                {
                  OFFSET 0.0 0.006864 0.0
                }
              }
            }
          }
        }
        JOINT RClavicle
        {
          OFFSET -0.014189 0.150698 0.046467
          CHANNELS 3 Xrotation Yrotation Zrotation
          JOINT RShoulder
          {
            OFFSET -0.082908 0.021619 -0.034982
            CHANNELS 3 Xrotation Yrotation Zrotation
            JOINT RForearm
            {
              OFFSET -0.195645 -0.000695 -0.001695
              CHANNELS 3 Xrotation Yrotation Zrotation
              JOINT RHand
              {
                OFFSET -0.163209 0.000474 -0.000977
                CHANNELS 3 Xrotation Yrotation Zrotation
                End Site
                {
                  OFFSET 0.0 0.006864 0.0
                }
              }
            }
          }
        }
      }
    }
  }
  JOINT RThigh
  {
    OFFSET -0.072558 0.02774 -0.005953
    CHANNELS 3 Xrotation Yrotation Zrotation
    JOINT RShin
    {
      OFFSET -0.005253 -0.285537 0.0
      CHANNELS 3 Xrotation Yrotation Zrotation
      JOINT RFoot
      {
        OFFSET 0.0 -0.28038 0.0
        CHANNELS 3 Xrotation Yrotation Zrotation
        JOINT RToe
        {
          OFFSET 0.0 -0.030816 0.064441
          CHANNELS 3 Xrotation Yrotation Zrotation
          End Site
          {
            OFFSET 0.0 0.0 0.043231
          }
        }
      }
    }
  }
  JOINT LThigh
  {
    OFFSET 0.072557 0.027741 -0.005953
    CHANNELS 3 Xrotation Yrotation Zrotation
    JOINT LShin
    {
      OFFSET 0.005253 -0.285539 0.0
      CHANNELS 3 Xrotation Yrotation Zrotation
      JOINT LFoot
      {
        OFFSET 0.0 -0.28038 0.0
        CHANNELS 3 Xrotation Yrotation Zrotation
        JOINT LToe
        {
          OFFSET 0.0 -0.030816 0.064441
          CHANNELS 3 Xrotation Yrotation Zrotation
          End Site
          {
            OFFSET 0.0 0.0 0.043231
          }
        }
      }
    }
  }
}
MOTION
Frames: 15
Frame Time: 0.03333333333333333
-0.020864 0.571331 -0.058942 6.145763 1.52412 0.610203 1.584227 -0.111815 -1.081797 0.566153 1.290216 -0.457355 -0.740516 3.253592 -1.846917 0.081407 0.354518 0.11502 0.03132 0.08845 -0.011053 0.622063 0.229373 -10.003321 14.914627 -28.69994 -52.534809 11.083277 -50.180637 0.938616 0.21536 0.26132 -0.208705 -0.113341 -1.575766 12.198212 1.249356 44.113708 68.822937 5.215316 36.249237 -1.367781 0.36568 -0.558454 0.032571 -20.098125 -0.150032 -2.410631 19.950062 -3.223879 4.187474 -3.111865 0.499008 -0.117009 0.250046 0.757557 0.091428 -14.360193 7.84231 4.877397 13.873395 9.275931 -6.373145 -2.722168 0.154185 0.025466 0.061188 -0.146917 0.041505 
-0.018477 0.564561 -0.058743 -0.56277 -0.997175 1.613812 2.144586 -0.133562 0.153303 -0.115096 1.365356 0.327019 -0.338977 5.21399 -3.351599 1.423483 0.399185 0.385271 0.049791 -0.353403 -0.037951 -1.22758 -1.824257 -10.505985 15.564538 -25.077972 -52.495377 12.270084 -50.233727 2.832038 0.143276 0.223102 -0.179061 -2.059429 0.892973 12.630461 4.345248 37.697502 65.919624 6.261079 39.196571 0.841238 -0.207828 -0.170494 -0.022823 -13.407091 1.028569 -1.361116 18.459743 -0.742702 1.408162 -2.320234 -0.301412 -0.564303 -0.109395 0.303688 0.133348 -2.457798 12.089828 2.258173 6.186509 8.223827 -5.902816 -3.563475 -0.180699 0.393701 0.126449 -0.222861 -0.075683 
-0.021353 0.562503 -0.061974 0.210472 -0.132403 1.313732 1.950969 -0.184475 0.219296 -0.120221 1.124629 0.366691 -1.687456 4.380129 -3.787984 1.485744 0.343501 0.425266 0.045527 -0.363349 -0.038847 -1.468493 -2.009952 -10.381299 16.783493 -25.062395 -52.862427 12.778083 -48.931622 2.278357 0.120864 0.196432 -0.149837 -2.122301 1.504742 12.970288 5.586797 38.808598 65.039116 7.447893 41.894421 2.084091 -0.282998 -0.101136 -0.026371 -14.369955 -0.394066 -0.869464 17.855362 -0.846253 1.050731 -1.679335 -0.247979 -0.485313 -0.131177 0.228748 0.12435 -4.509418 13.134543 2.917563 7.249584 8.902579 -6.481815 -3.164783 -0.23078 0.345837 0.125172 -0.193411 -0.071648 
-0.031389 0.562477 -0.062979 -0.588533 0.560715 1.436366 1.92385 -0.261812 0.182114 0.039801 1.100968 0.299165 -0.414307 4.425591 -3.896236 1.520673 0.370905 0.476989 0.039791 -0.351985 -0.036619 -1.427524 -2.062559 -10.320807 16.238594 -26.146336 -52.837605 12.527913 -48.087578 1.923079 0.102535 0.177588 -0.123021 -2.091038 1.767292 12.788536 4.193232 40.017689 65.367012 6.950457 43.523388 2.845886 -0.299478 -0.06838 -0.025403 -13.314558 -0.395341 -0.205468 17.081587 -0.518878 0.763428 -1.927532 -0.085478 -0.405517 -0.124074 0.21072 0.128209 -3.967099 13.322951 3.690695 7.378765 9.124666 -6.671199 -3.180383 -0.086531 0.369197 0.115853 -0.167511 -0.067149 
-0.038697 0.562407 -0.064986 -0.706064 1.006444 1.637041 1.923771 -0.288493 0.15388 0.208469 1.134772 0.215861 0.349324 4.635686 -3.96578 1.527642 0.37618 0.461296 0.036039 -0.324332 -0.034133 -1.333149 -2.005115 -10.265521 15.524257 -27.13493 -52.872849 11.921917 -47.203503 1.34871 0.095453 0.16957 -0.105407 -1.955446 1.689633 12.727131 2.204971 41.595737 66.15625 6.517249 41.112659 2.986934 -0.278798 -0.063851 -0.021108 -13.149586 -0.028816 0.288131 17.574301 -0.236563 0.623369 -2.334733 -0.04551 -0.392935 -0.121527 0.212706 0.128425 -4.294499 13.527112 4.129017 7.997573 9.3641 -6.777237 -3.168759 -0.031454 0.349207 0.106622 -0.150655 -0.057782 
-0.042291 0.56268 -0.067085 0.030065 1.327715 1.484832 1.945738 -0.283671 0.13948 0.318221 1.166476 0.157339 0.698083 4.832663 -4.035134 1.496666 0.378943 0.444381 0.036527 -0.312002 -0.037267 -1.215801 -1.941536 -10.178305 14.980087 -28.000488 -52.841511 11.619905 -46.208328 1.064734 0.097334 0.17497 -0.103828 -1.827853 1.511512 12.67039 0.525652 43.106598 66.847664 6.421618 38.668709 2.957181 -0.254183 -0.075952 -0.018982 -14.06111 0.274464 0.660221 18.763229 -0.161145 0.681478 -2.622948 -0.051768 -0.408343 -0.125343 0.237736 0.131999 -5.805748 13.318936 4.713272 9.176233 9.408875 -6.956528 -3.151115 -0.020866 0.322033 0.107915 -0.153301 -0.055812 
-0.043534 0.563428 -0.068331 0.634374 1.403985 1.383296 1.936901 -0.274195 0.160625 0.378054 1.178776 0.1263 0.880706 4.969631 -4.149669 1.449437 0.390171 0.430124 0.038785 -0.319023 -0.042156 -1.139723 -1.90392 -10.136959 14.849507 -28.601778 -52.678963 11.477932 -45.605457 0.916779 0.101331 0.184091 -0.106909 -1.771645 1.400385 12.607228 -0.148048 43.987656 66.962616 6.725085 37.070316 2.773716 -0.248902 -0.084438 -0.019834 -14.760286 0.455786 0.958352 19.86384 -0.166525 0.686954 -2.836844 -0.063302 -0.433515 -0.133742 0.255413 0.138662 -6.988747 12.95932 5.251472 10.036828 9.237016 -7.119698 -3.112532 -0.046426 0.298077 0.115106 -0.162939 -0.05897 
-0.0434 0.564271 -0.069019 1.171671 1.293311 1.366791 1.887591 -0.266856 0.206548 0.40233 1.160086 0.118529 0.838312 4.973243 -4.261305 1.396904 0.394305 0.415478 0.041141 -0.332343 -0.04616 -1.12165 -1.896663 -10.17006 15.083682 -28.990181 -52.463833 11.653541 -45.315002 0.937047 0.104992 0.191631 -0.109806 -1.75782 1.396515 12.530688 0.082356 44.355053 66.621368 7.175955 36.563007 2.61993 -0.25508 -0.087386 -0.021851 -15.503545 0.482307 1.1799 20.716032 -0.217814 0.665482 -2.977302 -0.060529 -0.451374 -0.139273 0.259816 0.143824 -8.082759 12.483827 5.707628 10.76904 8.951916 -7.243523 -3.04972 -0.084005 0.273454 0.123046 -0.173114 -0.063394 
-0.042823 0.564562 -0.069302 1.750073 1.09054 1.422493 1.839333 -0.257923 0.25626 0.368382 1.116842 0.120616 0.550507 4.873206 -4.429558 1.364018 0.397126 0.414777 0.043087 -0.349278 -0.048797 -1.140159 -1.918926 -10.200534 15.472761 -29.24214 -52.265247 11.919415 -45.170559 1.005856 0.106935 0.196597 -0.111461 -1.775752 1.458683 12.44881 0.693579 44.466393 66.268501 7.628226 36.609886 2.534862 -0.269809 -0.084094 -0.024393 -16.419392 0.489945 1.298051 21.410311 -0.276243 0.638882 -3.059016 -0.067158 -0.468219 -0.145174 0.256515 0.1474 -9.165123 12.117281 6.058383 11.314784 8.716582 -7.332853 -3.015944 -0.123848 0.254279 0.130462 -0.182399 -0.067683 
-0.041814 0.56387 -0.069543 2.581349 0.832651 1.542106 1.784535 -0.24746 0.299265 0.286996 1.054406 0.128447 0.004774 4.715024 -4.633191 1.339195 0.398256 0.421016 0.043819 -0.363436 -0.049989 -1.167806 -1.937004 -10.223351 15.989905 -29.346786 -52.090332 12.25542 -45.20055 1.033983 0.107295 0.199053 -0.11192 -1.793138 1.544764 12.381093 1.523135 44.397861 65.946884 7.996771 36.854862 2.519744 -0.28564 -0.076397 -0.026574 -17.836607 0.58647 1.312569 22.187765 -0.301713 0.626524 -3.166704 -0.083798 -0.482023 -0.150265 0.249917 0.148187 -10.579533 11.841306 6.318264 11.993074 8.570852 -7.402698 -3.015507 -0.164434 0.235699 0.136685 -0.190283 -0.070252 
-0.040341 0.562085 -0.070459 3.742448 0.477225 1.658978 1.726623 -0.23827 0.328548 0.187288 0.986624 0.134729 -0.67334 4.546416 -4.819136 1.313824 0.39712 0.426526 0.043899 -0.373012 -0.050107 -1.185906 -1.92511 -10.231023 16.499281 -29.412134 -51.946125 12.626482 -45.272964 1.051458 0.107537 0.199882 -0.113411 -1.794888 1.600322 12.345881 2.349226 44.322353 65.616913 8.34141 36.807022 2.495773 -0.296408 -0.069915 -0.028694 -19.937334 0.776408 1.319306 23.231297 -0.334948 0.648338 -3.308709 -0.118262 -0.499811 -0.152658 0.245081 0.14867 -12.476785 11.563845 6.601861 12.986522 8.478338 -7.480324 -3.044541 -0.188675 0.221133 0.140405 -0.195758 -0.072891 
-0.038228 0.559214 -0.073162 5.66935 0.140446 1.6826 1.638079 -0.233432 0.345202 0.06941 0.916808 0.122099 -1.539125 4.351646 -5.055768 1.258722 0.395257 0.426213 0.04355 -0.376082 -0.050294 -1.167648 -1.839109 -10.220929 17.048122 -29.524857 -51.694832 12.989229 -45.307331 1.018827 0.108302 0.200178 -0.116293 -1.761642 1.593444 12.366138 3.153116 44.419655 65.261322 8.714104 36.166584 2.394107 -0.298522 -0.068755 -0.03088 -23.50462 1.15063 1.320677 25.150328 -0.387336 0.728075 -3.53287 -0.195718 -0.535074 -0.152407 0.247674 0.149758 -15.747488 11.208201 7.070597 14.815667 8.489836 -7.610239 -3.091608 -0.206499 0.202456 0.143437 -0.202025 -0.075671 
-0.035491 0.555428 -0.077835 8.768247 0.052888 1.520168 1.507248 -0.239087 0.341604 -0.036906 0.846117 0.098279 -2.577301 4.08992 -5.393922 1.141564 0.394803 0.417968 0.044132 -0.369986 -0.052617 -1.077034 -1.672467 -10.212392 17.659531 -29.797424 -51.160217 13.442061 -45.330448 0.939432 0.111881 0.204958 -0.123884 -1.668021 1.493991 12.461775 3.897822 44.802387 64.947433 8.963525 34.860065 2.296629 -0.28778 -0.078597 -0.033117 -29.000515 1.673453 1.339671 28.093136 -0.474199 0.856214 -3.849373 -0.318141 -0.589953 -0.151667 0.263036 0.150596 -21.072336 10.729355 7.763853 17.9319 8.654946 -7.854839 -3.148968 -0.20903 0.179856 0.147231 -0.209738 -0.0781 
-0.033347 0.550974 -0.084058 13.53874 0.298466 1.216979 1.331216 -0.242483 0.319117 -0.139557 0.778063 0.060405 -3.719616 3.691446 -5.758587 0.971664 0.399407 0.402207 0.044992 -0.355252 -0.057507 -0.914736 -1.43169 -10.232807 18.281805 -30.235561 -50.430622 13.964047 -45.154774 0.847568 0.11612 0.210488 -0.13156 -1.520993 1.304507 12.703041 4.692824 45.249321 64.658798 8.94471 33.201595 2.347637 -0.269434 -0.091287 -0.035596 -36.861004 2.152471 1.483916 32.050262 -0.685377 1.013061 -4.309241 -0.478193 -0.661199 -0.148407 0.28583 0.152817 -29.074812 9.980899 8.666651 22.556528 8.870726 -8.15917 -3.187215 -0.167713 0.165095 0.149926 -0.215601 -0.081597 
-0.033661 0.545572 -0.089604 19.296135 1.173932 0.793034 1.083068 -0.253998 0.277731 -0.189936 0.711691 0.01209 -4.727867 3.187404 -6.191175 0.7331 0.401787 0.374193 0.047724 -0.328276 -0.061432 -0.651092 -1.104182 -10.286079 19.042503 -30.988077 -49.196037 14.791231 -45.148216 0.763194 0.121382 0.217321 -0.139404 -1.268642 1.002856 13.020546 5.493197 45.905029 64.341141 8.990064 31.894901 2.38046 -0.241198 -0.109056 -0.037162 -45.905231 2.366334 1.638333 36.37904 -0.993279 1.153629 -4.599079 -0.630202 -0.721442 -0.139039 0.312291 0.152826 -38.3568 9.050521 9.595451 28.054636 9.114686 -8.420495 -3.110249 -0.144469 0.130908 0.153712 -0.21849 -0.083472 
